<mxfile host="app.diagrams.net" agent="Mozilla/5.0 (Macintosh; Intel Mac OS X 10_15_7) AppleWebKit/537.36 (KHTML, like Gecko) Chrome/128.0.0.0 Safari/537.36" version="24.7.13">
  <diagram name="第 1 页" id="RY_t8ta6Jy8CSsKZBZrm">
    <mxGraphModel dx="2211" dy="761" grid="1" gridSize="10" guides="1" tooltips="1" connect="1" arrows="1" fold="1" page="1" pageScale="1" pageWidth="827" pageHeight="1169" math="0" shadow="0">
      <root>
        <mxCell id="0" />
        <mxCell id="1" parent="0" />
        <mxCell id="6D39OJ56opdchLymes4Q-1" value="&lt;div style=&quot;background-color: rgb(255, 255, 255); color: rgb(8, 8, 8); font-size: 14px;&quot;&gt;&lt;pre style=&quot;font-family: &amp;quot;JetBrains Mono&amp;quot;, monospace; font-size: 14px;&quot;&gt;&lt;span style=&quot;color: rgb(0, 0, 0); font-size: 14px;&quot;&gt;MqttLianRuiReceiveHandler&lt;/span&gt;&lt;/pre&gt;&lt;/div&gt;" style="shape=umlLifeline;perimeter=lifelinePerimeter;whiteSpace=wrap;html=1;container=1;dropTarget=0;collapsible=0;recursiveResize=0;outlineConnect=0;portConstraint=eastwest;newEdgeStyle={&quot;curved&quot;:0,&quot;rounded&quot;:0};fontSize=14;" vertex="1" parent="1">
          <mxGeometry x="-260" y="10" width="240" height="750" as="geometry" />
        </mxCell>
        <mxCell id="6D39OJ56opdchLymes4Q-2" value="监听到人员定位设备上报的报文" style="html=1;verticalAlign=bottom;endArrow=block;curved=0;rounded=0;fontSize=14;" edge="1" parent="1" target="6D39OJ56opdchLymes4Q-8">
          <mxGeometry width="80" relative="1" as="geometry">
            <mxPoint x="-140.5" y="90" as="sourcePoint" />
            <mxPoint x="239.5" y="90" as="targetPoint" />
          </mxGeometry>
        </mxCell>
        <mxCell id="6D39OJ56opdchLymes4Q-3" value="&lt;div style=&quot;background-color: rgb(255, 255, 255); color: rgb(8, 8, 8); font-size: 14px;&quot;&gt;&lt;pre style=&quot;font-family: &amp;quot;JetBrains Mono&amp;quot;, monospace; font-size: 14px;&quot;&gt;&lt;span style=&quot;color: rgb(0, 0, 0); font-size: 14px;&quot;&gt;DeviceEventReceiver&lt;/span&gt;&lt;/pre&gt;&lt;/div&gt;" style="shape=umlLifeline;perimeter=lifelinePerimeter;whiteSpace=wrap;html=1;container=1;dropTarget=0;collapsible=0;recursiveResize=0;outlineConnect=0;portConstraint=eastwest;newEdgeStyle={&quot;curved&quot;:0,&quot;rounded&quot;:0};fontSize=14;" vertex="1" parent="1">
          <mxGeometry x="130" y="10" width="190" height="750" as="geometry" />
        </mxCell>
        <mxCell id="6D39OJ56opdchLymes4Q-8" value="" style="html=1;points=[[0,0,0,0,5],[0,1,0,0,-5],[1,0,0,0,5],[1,1,0,0,-5]];perimeter=orthogonalPerimeter;outlineConnect=0;targetShapes=umlLifeline;portConstraint=eastwest;newEdgeStyle={&quot;curved&quot;:0,&quot;rounded&quot;:0};fontSize=14;" vertex="1" parent="6D39OJ56opdchLymes4Q-3">
          <mxGeometry x="90" y="60" width="10" height="80" as="geometry" />
        </mxCell>
        <mxCell id="6D39OJ56opdchLymes4Q-4" value="&lt;font style=&quot;font-size: 14px;&quot;&gt;进行报文解析转化为&lt;span style=&quot;font-family: &amp;quot;JetBrains Mono&amp;quot;, monospace; background-color: rgb(255, 255, 255); font-size: 14px;&quot;&gt;DeviceEventDTO，&lt;/span&gt;&lt;/font&gt;&lt;div style=&quot;font-size: 14px;&quot;&gt;&lt;font style=&quot;font-size: 14px;&quot;&gt;&lt;span style=&quot;font-family: &amp;quot;JetBrains Mono&amp;quot;, monospace; background-color: rgb(255, 255, 255); font-size: 14px;&quot;&gt;并转发至RabbitMQ&lt;/span&gt;&lt;/font&gt;&lt;/div&gt;" style="text;html=1;align=center;verticalAlign=middle;resizable=0;points=[];autosize=1;strokeColor=none;fillColor=none;fontSize=14;" vertex="1" parent="1">
          <mxGeometry x="-100" y="90" width="280" height="50" as="geometry" />
        </mxCell>
        <mxCell id="6D39OJ56opdchLymes4Q-5" value="&lt;div style=&quot;background-color: rgb(255, 255, 255); color: rgb(8, 8, 8); font-size: 14px;&quot;&gt;&lt;pre style=&quot;font-family: &amp;quot;JetBrains Mono&amp;quot;, monospace; font-size: 14px;&quot;&gt;&lt;span style=&quot;color: rgb(0, 0, 0); font-size: 14px;&quot;&gt;DeviceEventService&lt;/span&gt;&lt;/pre&gt;&lt;/div&gt;" style="shape=umlLifeline;perimeter=lifelinePerimeter;whiteSpace=wrap;html=1;container=1;dropTarget=0;collapsible=0;recursiveResize=0;outlineConnect=0;portConstraint=eastwest;newEdgeStyle={&quot;curved&quot;:0,&quot;rounded&quot;:0};fontSize=14;" vertex="1" parent="1">
          <mxGeometry x="380" y="10" width="170" height="750" as="geometry" />
        </mxCell>
        <mxCell id="6D39OJ56opdchLymes4Q-9" value="" style="html=1;points=[[0,0,0,0,5],[0,1,0,0,-5],[1,0,0,0,5],[1,1,0,0,-5]];perimeter=orthogonalPerimeter;outlineConnect=0;targetShapes=umlLifeline;portConstraint=eastwest;newEdgeStyle={&quot;curved&quot;:0,&quot;rounded&quot;:0};fontSize=14;" vertex="1" parent="6D39OJ56opdchLymes4Q-5">
          <mxGeometry x="80" y="110" width="10" height="310" as="geometry" />
        </mxCell>
        <mxCell id="6D39OJ56opdchLymes4Q-11" value="" style="html=1;points=[[0,0,0,0,5],[0,1,0,0,-5],[1,0,0,0,5],[1,1,0,0,-5]];perimeter=orthogonalPerimeter;outlineConnect=0;targetShapes=umlLifeline;portConstraint=eastwest;newEdgeStyle={&quot;curved&quot;:0,&quot;rounded&quot;:0};fontSize=14;" vertex="1" parent="6D39OJ56opdchLymes4Q-5">
          <mxGeometry x="85" y="150" width="10" height="50" as="geometry" />
        </mxCell>
        <mxCell id="6D39OJ56opdchLymes4Q-12" value="&lt;div style=&quot;color: rgb(8, 8, 8); font-size: 14px;&quot;&gt;&lt;pre style=&quot;font-size: 14px;&quot;&gt;&lt;br style=&quot;font-size: 14px;&quot;&gt;&lt;/pre&gt;&lt;/div&gt;" style="html=1;align=left;spacingLeft=2;endArrow=block;rounded=0;edgeStyle=orthogonalEdgeStyle;curved=0;rounded=0;fontSize=14;" edge="1" target="6D39OJ56opdchLymes4Q-11" parent="6D39OJ56opdchLymes4Q-5" source="6D39OJ56opdchLymes4Q-9">
          <mxGeometry relative="1" as="geometry">
            <mxPoint x="90" y="130" as="sourcePoint" />
            <Array as="points">
              <mxPoint x="120" y="140" />
              <mxPoint x="120" y="170" />
            </Array>
          </mxGeometry>
        </mxCell>
        <mxCell id="6D39OJ56opdchLymes4Q-15" value="" style="html=1;points=[[0,0,0,0,5],[0,1,0,0,-5],[1,0,0,0,5],[1,1,0,0,-5]];perimeter=orthogonalPerimeter;outlineConnect=0;targetShapes=umlLifeline;portConstraint=eastwest;newEdgeStyle={&quot;curved&quot;:0,&quot;rounded&quot;:0};fontSize=14;" vertex="1" parent="6D39OJ56opdchLymes4Q-5">
          <mxGeometry x="85" y="220" width="10" height="40" as="geometry" />
        </mxCell>
        <mxCell id="6D39OJ56opdchLymes4Q-16" value="按照区域围栏逐个匹配" style="html=1;align=left;spacingLeft=2;endArrow=block;rounded=0;edgeStyle=orthogonalEdgeStyle;curved=0;rounded=0;fontSize=14;" edge="1" target="6D39OJ56opdchLymes4Q-15" parent="6D39OJ56opdchLymes4Q-5">
          <mxGeometry x="0.9048" y="-10" relative="1" as="geometry">
            <mxPoint x="90" y="190" as="sourcePoint" />
            <Array as="points">
              <mxPoint x="90" y="210" />
              <mxPoint x="120" y="210" />
              <mxPoint x="120" y="240" />
            </Array>
            <mxPoint as="offset" />
          </mxGeometry>
        </mxCell>
        <mxCell id="6D39OJ56opdchLymes4Q-17" value="" style="html=1;outlineConnect=0;targetShapes=umlLifeline;portConstraint=eastwest;newEdgeStyle={&quot;curved&quot;:0,&quot;rounded&quot;:0};points=[[0,0,0,0,5],[0,1,0,0,-5],[1,0,0,0,5],[1,1,0,0,-5]];perimeter=orthogonalPerimeter;fontSize=14;" vertex="1" parent="6D39OJ56opdchLymes4Q-5">
          <mxGeometry x="85" y="290" width="10" height="40" as="geometry" />
        </mxCell>
        <mxCell id="6D39OJ56opdchLymes4Q-18" value="匹配到成功，&lt;div style=&quot;font-size: 14px;&quot;&gt;则查询当前区域用户配置的告警规则，&lt;/div&gt;&lt;div style=&quot;font-size: 14px;&quot;&gt;不在围栏中，则从redis中删除当前区域的hash中的该用户ID&lt;/div&gt;" style="html=1;align=left;spacingLeft=2;endArrow=block;rounded=0;edgeStyle=orthogonalEdgeStyle;curved=0;rounded=0;fontSize=14;" edge="1" target="6D39OJ56opdchLymes4Q-17" parent="6D39OJ56opdchLymes4Q-5">
          <mxGeometry relative="1" as="geometry">
            <mxPoint x="90" y="270" as="sourcePoint" />
            <Array as="points">
              <mxPoint x="120" y="300" />
            </Array>
          </mxGeometry>
        </mxCell>
        <mxCell id="6D39OJ56opdchLymes4Q-22" value="" style="html=1;points=[[0,0,0,0,5],[0,1,0,0,-5],[1,0,0,0,5],[1,1,0,0,-5]];perimeter=orthogonalPerimeter;outlineConnect=0;targetShapes=umlLifeline;portConstraint=eastwest;newEdgeStyle={&quot;curved&quot;:0,&quot;rounded&quot;:0};fontSize=14;" vertex="1" parent="6D39OJ56opdchLymes4Q-5">
          <mxGeometry x="85" y="355" width="10" height="40" as="geometry" />
        </mxCell>
        <mxCell id="6D39OJ56opdchLymes4Q-23" value="按照告警规则逐级比较，&lt;div style=&quot;font-size: 14px;&quot;&gt;如果规则匹配成功则发送站内信，&lt;/div&gt;&lt;div style=&quot;font-size: 14px;&quot;&gt;并生成告警记录&lt;/div&gt;" style="html=1;align=left;spacingLeft=2;endArrow=block;rounded=0;edgeStyle=orthogonalEdgeStyle;curved=0;rounded=0;fontSize=14;" edge="1" target="6D39OJ56opdchLymes4Q-22" parent="6D39OJ56opdchLymes4Q-5" source="6D39OJ56opdchLymes4Q-9">
          <mxGeometry relative="1" as="geometry">
            <mxPoint x="95" y="320" as="sourcePoint" />
            <Array as="points">
              <mxPoint x="125" y="350" />
              <mxPoint x="125" y="375" />
            </Array>
          </mxGeometry>
        </mxCell>
        <mxCell id="6D39OJ56opdchLymes4Q-6" value="&lt;font style=&quot;font-size: 14px;&quot;&gt;按照不同的事件类型进入&lt;/font&gt;&lt;div style=&quot;font-size: 14px;&quot;&gt;&lt;font style=&quot;font-size: 14px;&quot;&gt;不同的规则引擎进行判断&lt;/font&gt;&lt;/div&gt;" style="html=1;verticalAlign=bottom;endArrow=block;curved=0;rounded=0;fontSize=14;" edge="1" parent="1">
          <mxGeometry width="80" relative="1" as="geometry">
            <mxPoint x="230" y="134" as="sourcePoint" />
            <mxPoint x="460" y="134" as="targetPoint" />
          </mxGeometry>
        </mxCell>
        <mxCell id="6D39OJ56opdchLymes4Q-7" value="目前仅有人员定位告警类型" style="text;html=1;align=center;verticalAlign=middle;resizable=0;points=[];autosize=1;strokeColor=none;fillColor=none;fontSize=14;" vertex="1" parent="1">
          <mxGeometry x="250" y="140" width="190" height="30" as="geometry" />
        </mxCell>
        <mxCell id="6D39OJ56opdchLymes4Q-14" value="查询当前租户&lt;div style=&quot;font-size: 14px;&quot;&gt;所有区域信息，即获取所有围栏&lt;/div&gt;" style="text;html=1;align=center;verticalAlign=middle;resizable=0;points=[];autosize=1;strokeColor=none;fillColor=none;fontSize=14;" vertex="1" parent="1">
          <mxGeometry x="465" y="140" width="220" height="50" as="geometry" />
        </mxCell>
      </root>
    </mxGraphModel>
  </diagram>
</mxfile>
